# xmcd
#
# Track frame offsets:
#	151
#	15963
#	26800
#	42334
#	58317
#	76964
#	95135
#	107396
#	116864
#	132723
#	149791
#	170035
#	178946
#	194650
#
# Disc length: 2762 seconds
#
# Revision: 1
# Processed by: cddbd v1.4PL0 Copyright (c) Steve Scherf et al.
# Submitted via: EasyCDDAExtractor 5.1.0
#
DISCID=d90ac80e
DTITLE=The Gypsies - Land of color
DYEAR=2002
DGENRE=Blues
TTITLE0=Land of color
TTITLE1=Castles by stone
TTITLE2=Destructions of the arms
TTITLE3=Walk under sea
TTITLE4=Gypsy woman
TTITLE5=Bodoman
TTITLE6=Cactus crawlin´
TTITLE7=Hey People
TTITLE8=Pitch-black pointless
TTITLE9=Midnight terrain
TTITLE10=You´re not free
TTITLE11=Rainbow in the sky
TTITLE12=Sunny reggae
TTITLE13=Cactus crawlin´ (Sloppyversion)
EXTD=
EXTT0=
EXTT1=
EXTT2=
EXTT3=
EXTT4=
EXTT5=
EXTT6=
EXTT7=
EXTT8=
EXTT9=
EXTT10=
EXTT11=
EXTT12=
EXTT13=
PLAYORDER=
